<?xml version="1.0" standalone="no"?>
<!DOCTYPE svg PUBLIC "-//W3C//DTD SVG 20010904//EN"
 "http://www.w3.org/TR/2001/REC-SVG-20010904/DTD/svg10.dtd">
<svg version="1.0" xmlns="http://www.w3.org/2000/svg"
 width="700.000000pt" height="700.000000pt" viewBox="0 0 700.000000 700.000000"
 preserveAspectRatio="xMidYMid meet">
<metadata>
Created by potrace 1.14, written by Peter Selinger 2001-2017
</metadata>
<g transform="translate(0.000000,700.000000) scale(0.100000,-0.100000)"
fill="#000000" stroke="none">
<path d="M723 5992 c-176 -155 -286 -313 -357 -512 -79 -217 -92 -473 -37
-685 l18 -70 -176 -178 -176 -177 500 -499 c537 -535 565 -559 758 -651 l100
-48 23 -93 c28 -109 105 -271 166 -349 l43 -55 5 -745 5 -745 26 -55 c54 -113
154 -180 279 -188 60 -3 86 0 132 18 79 29 148 94 184 172 l29 63 3 404 3 404
79 -78 80 -79 59 58 60 59 3 -384 3 -384 33 -67 c63 -127 172 -193 312 -186
131 6 246 86 289 203 20 54 21 74 21 584 l0 527 168 12 c245 18 239 18 247
-21 9 -42 66 -164 99 -213 46 -68 153 -168 226 -212 109 -65 205 -94 333 -100
l107 -5 0 -258 c0 -302 7 -334 88 -417 66 -67 129 -96 222 -100 175 -8 311
103 339 278 6 36 11 163 11 283 l0 217 30 0 30 0 0 -235 c0 -306 14 -369 99
-454 64 -64 122 -86 226 -86 75 0 98 4 140 25 68 33 129 99 157 168 l22 57 7
850 c4 468 12 956 18 1085 6 129 11 246 11 260 0 24 6 27 63 39 168 34 383
131 545 247 50 37 139 115 195 174 240 248 379 546 416 892 6 54 11 303 11
556 l0 460 -457 7 c-499 7 -604 2 -782 -41 -500 -119 -915 -501 -1074 -989
-35 -107 -53 -190 -67 -310 -7 -55 -13 -101 -13 -101 -1 -1 -195 -57 -432
-124 -409 -118 -435 -124 -541 -128 -90 -4 -126 0 -194 17 -46 11 -86 23 -89
26 -3 3 51 62 119 130 l125 125 -173 173 -172 173 21 79 c16 60 22 120 26 245
4 143 2 179 -17 270 -40 194 -126 376 -252 529 -57 70 -225 224 -238 219 -4
-2 -110 -123 -235 -270 l-227 -266 -53 23 c-29 13 -95 35 -146 49 -251 67
-508 59 -749 -25 -47 -16 -92 -32 -100 -35 -11 -4 -84 75 -239 258 -123 145
-227 264 -232 266 -4 2 -43 -28 -86 -66z m192 -438 c69 -81 125 -150 125 -154
0 -4 -17 -20 -37 -36 -21 -15 -129 -118 -240 -228 -112 -110 -206 -197 -209
-193 -4 4 -7 62 -7 129 1 188 50 362 145 510 35 55 86 118 95 118 1 0 59 -66
128 -146z m1950 89 c57 -72 127 -215 156 -313 16 -55 23 -114 26 -222 3 -81 2
-155 -1 -164 -5 -14 -46 21 -194 167 -103 102 -213 208 -245 235 l-58 49 128
152 c70 84 131 152 135 152 4 1 28 -25 53 -56z m3704 -130 l183 -6 -5 -391
c-5 -423 -8 -448 -67 -628 -104 -313 -330 -568 -635 -718 -100 -50 -311 -121
-319 -108 -1 2 -14 35 -29 73 -56 146 -197 323 -332 420 -121 86 -261 144
-414 170 -47 9 -86 17 -87 18 -8 8 30 219 53 291 147 470 567 819 1051 875 98
11 366 13 601 4z m-4604 -138 c164 -29 307 -90 435 -186 41 -31 247 -230 458
-441 l382 -384 -382 -380 c-211 -209 -414 -404 -453 -433 -88 -66 -246 -144
-350 -171 -103 -28 -315 -38 -422 -20 -145 23 -294 83 -426 172 -37 24 -226
204 -462 440 l-400 398 395 393 c411 408 477 465 623 532 186 86 403 114 602
80z m3015 -1309 c96 -26 230 -100 303 -166 76 -70 155 -183 187 -267 50 -133
52 -171 35 -639 -8 -236 -15 -618 -15 -847 l0 -417 -75 0 -75 0 0 156 c0 125
-3 155 -13 151 -240 -92 -414 -88 -566 14 -75 50 -120 104 -163 195 -32 66
-33 75 -36 212 l-4 142 -42 0 c-23 0 -352 -22 -731 -50 -379 -27 -695 -50
-703 -50 -8 0 25 41 73 92 191 203 288 406 315 661 19 171 -13 371 -85 532
-14 32 -24 59 -23 60 2 2 32 -3 68 -11 84 -18 259 -18 352 0 40 8 248 65 463
126 214 62 410 116 435 121 62 11 234 3 300 -15z m-1840 -352 c58 -117 81
-217 82 -349 1 -125 -11 -197 -53 -306 -53 -137 -92 -185 -437 -532 l-327
-327 -308 307 c-170 170 -328 335 -352 368 -42 58 -115 198 -115 220 0 6 48 9
137 7 279 -7 503 58 743 216 61 40 150 121 320 289 l235 232 18 -22 c10 -12
35 -58 57 -103z m-1140 -1661 l0 -203 -80 0 -80 0 0 282 0 283 80 -80 80 -80
0 -202z m940 57 l0 -260 -80 0 -80 0 0 182 0 183 77 77 c43 43 79 78 80 78 2
0 3 -117 3 -260z m1376 203 c25 -114 62 -204 117 -285 32 -46 27 -48 -101 -55
-158 -9 -280 40 -382 154 -47 51 -107 160 -95 171 4 4 102 14 218 23 117 9
218 17 224 18 7 0 15 -11 19 -26z m464 -570 c0 -10 -21 -13 -80 -13 l-80 0 0
54 0 54 80 -41 c44 -23 80 -47 80 -54z m-2782 -329 c-3 -181 -4 -186 -27 -205
-35 -28 -85 -25 -110 7 -19 25 -21 40 -21 205 l0 179 81 0 80 0 -3 -186z m942
4 c0 -173 -1 -183 -22 -205 -23 -24 -66 -30 -98 -13 -31 17 -40 67 -40 236 l0
164 80 0 80 0 0 -182z m1840 -35 c0 -112 -12 -168 -40 -183 -31 -16 -72 -11
-97 12 -22 20 -23 29 -23 145 l0 123 80 0 80 0 0 -97z m708 -27 c-3 -141 -15
-166 -73 -166 -58 0 -70 25 -73 166 l-4 124 77 0 77 0 -4 -124z"/>
<path d="M1143 4516 c-104 -34 -185 -106 -232 -205 -22 -48 -26 -69 -26 -151
0 -82 4 -103 27 -152 87 -186 308 -266 493 -179 281 131 281 529 1 666 -70 34
-193 44 -263 21z m181 -267 c44 -38 56 -87 32 -135 -38 -81 -133 -96 -193 -30
-101 110 50 263 161 165z"/>
<path d="M2163 4515 c-237 -73 -335 -347 -201 -557 36 -58 87 -99 165 -135 49
-23 72 -28 143 -28 74 0 93 4 150 31 83 40 144 100 181 178 116 248 -63 528
-335 525 -34 0 -80 -6 -103 -14z m181 -266 c64 -56 56 -144 -16 -190 -68 -42
-161 3 -175 84 -18 111 107 180 191 106z"/>
</g>
</svg>
